<svg xmlns="http://www.w3.org/2000/svg" xmlns:xlink="http://www.w3.org/1999/xlink" width="500" zoomAndPan="magnify" viewBox="0 0 375 374.999991" height="500" preserveAspectRatio="xMidYMid meet" version="1.0"><defs><g/><clipPath id="d29a72e8a2"><path d="M 21 37 L 354 37 L 354 337.496094 L 21 337.496094 Z M 21 37 " clip-rule="nonzero"/></clipPath><clipPath id="12eda7f144"><path d="M 347.609375 210.820312 L 287.371094 314.167969 C 278.953125 328.613281 263.492188 337.496094 246.773438 337.496094 L 128.214844 337.496094 C 111.496094 337.496094 96.039062 328.613281 87.617188 314.167969 L 27.378906 210.820312 C 18.976562 196.40625 18.976562 178.585938 27.378906 164.167969 L 87.617188 60.820312 C 96.039062 46.378906 111.496094 37.496094 128.214844 37.496094 L 246.773438 37.496094 C 263.492188 37.496094 278.953125 46.378906 287.371094 60.820312 L 347.609375 164.167969 C 356.011719 178.585938 356.011719 196.40625 347.609375 210.820312 Z M 347.609375 210.820312 " clip-rule="nonzero"/></clipPath><clipPath id="07e3c52af4"><path d="M 21 37.5 L 354 37.5 L 354 337.496094 L 21 337.496094 Z M 21 37.5 " clip-rule="nonzero"/></clipPath><clipPath id="3378a39b03"><path d="M 347.609375 210.820312 L 287.375 314.164062 C 278.953125 328.609375 263.496094 337.492188 246.777344 337.492188 L 128.222656 337.492188 C 111.503906 337.492188 96.046875 328.609375 87.625 314.164062 L 27.390625 210.820312 C 18.988281 196.40625 18.988281 178.585938 27.390625 164.167969 L 87.625 60.824219 C 96.046875 46.382812 111.503906 37.5 128.222656 37.5 L 246.777344 37.5 C 263.496094 37.5 278.953125 46.382812 287.375 60.824219 L 347.609375 164.167969 C 356.011719 178.585938 356.011719 196.40625 347.609375 210.820312 Z M 347.609375 210.820312 " clip-rule="nonzero"/></clipPath><clipPath id="73d996686e"><path d="M 37 52.710938 L 338 52.710938 L 338 321.960938 L 37 321.960938 Z M 37 52.710938 " clip-rule="nonzero"/></clipPath><clipPath id="f274dab436"><path d="M 37 264.242188 L 338 264.242188 L 338 321.945312 L 37 321.945312 Z M 37 264.242188 " clip-rule="nonzero"/></clipPath><clipPath id="936ff4b49b"><path d="M 67.292969 109.503906 L 214.292969 109.503906 L 214.292969 259.503906 L 67.292969 259.503906 Z M 67.292969 109.503906 " clip-rule="nonzero"/></clipPath></defs><g clip-path="url(#d29a72e8a2)"><g clip-path="url(#12eda7f144)"><path fill="#ffffff" d="M 361.207031 37.496094 L 361.207031 337.496094 L 14.332031 337.496094 L 14.332031 37.496094 Z M 361.207031 37.496094 " fill-opacity="1" fill-rule="nonzero"/></g></g><g clip-path="url(#07e3c52af4)"><g clip-path="url(#3378a39b03)"><path stroke-linecap="butt" transform="matrix(0, 0.75, -0.75, 0, 361.207013, 37.499324)" fill="none" stroke-linejoin="miter" d="M 231.094667 18.130185 L 368.886343 98.44269 C 388.146761 109.671858 399.990511 130.281234 399.990511 152.572902 L 399.990511 310.645829 C 399.990511 332.937497 388.146761 353.546874 368.886343 364.776041 L 231.094667 445.088546 C 211.875916 456.291672 188.115498 456.291672 168.891538 445.088546 L 31.099862 364.776041 C 11.844653 353.546874 0.000901843 332.937497 0.000901843 310.645829 L 0.000901843 152.572902 C 0.000901843 130.281234 11.844653 109.671858 31.099862 98.44269 L 168.891538 18.130185 C 188.115498 6.927059 211.875916 6.927059 231.094667 18.130185 Z M 231.094667 18.130185 " stroke="#263e57" stroke-width="26" stroke-opacity="1" stroke-miterlimit="4"/></g></g><g clip-path="url(#73d996686e)"><path fill="#263e57" d="M 100.351562 306.113281 L 70.777344 254.890625 L 41.207031 203.667969 C 36.050781 194.742188 36.050781 180.25 41.207031 171.320312 L 70.777344 120.101562 L 100.351562 68.878906 C 105.503906 59.953125 118.058594 52.703125 128.367188 52.703125 L 246.65625 52.703125 C 256.960938 52.703125 269.515625 59.953125 274.671875 68.878906 L 304.242188 120.101562 L 333.816406 171.320312 C 338.96875 180.25 338.96875 194.742188 333.816406 203.667969 L 304.242188 254.890625 L 274.671875 306.113281 C 269.515625 315.039062 256.960938 322.285156 246.65625 322.285156 L 128.367188 322.285156 C 118.058594 322.285156 105.503906 315.039062 100.351562 306.113281 Z M 100.351562 306.113281 " fill-opacity="1" fill-rule="nonzero"/></g><path stroke-linecap="butt" transform="matrix(0.75, 0, 0, 0.75, 47.229381, 208.898468)" fill="none" stroke-linejoin="miter" d="M 0.00145087 2.49996 L 374.053559 2.49996 " stroke="#263e57" stroke-width="5" stroke-opacity="1" stroke-miterlimit="4"/><g clip-path="url(#f274dab436)"><path fill="#263e57" d="M 100.324219 306.117188 L 41.175781 203.664062 C 36.023438 194.738281 36.023438 180.242188 41.175781 171.3125 L 70.75 120.089844 L 100.324219 68.863281 C 105.480469 59.933594 118.035156 52.6875 128.34375 52.6875 L 246.644531 52.6875 C 256.953125 52.6875 269.507812 59.933594 274.664062 68.863281 L 304.238281 120.089844 L 333.8125 171.3125 C 338.96875 180.242188 338.96875 194.738281 333.8125 203.664062 L 274.664062 306.117188 C 269.507812 315.042969 256.953125 322.292969 246.644531 322.292969 L 128.34375 322.292969 C 118.035156 322.292969 105.480469 315.042969 100.324219 306.117188 Z M 100.324219 306.117188 " fill-opacity="1" fill-rule="nonzero"/></g><g clip-path="url(#936ff4b49b)"><path fill="#ffffff" d="M 121.632812 172.3125 L 108.242188 225.191406 C 111.394531 225.636719 113.960938 225.910156 115.878906 225.910156 C 118.792969 225.910156 122.421875 225.394531 126.703125 224.4375 L 125.675781 229.335938 C 121.257812 230.257812 117.765625 230.703125 115.332031 230.703125 C 112.730469 230.703125 108.894531 230.464844 103.929688 229.984375 C 99.511719 229.539062 95.8125 229.265625 92.867188 229.265625 C 87.558594 229.265625 81.460938 230.019531 74.476562 231.558594 L 75.949219 226.011719 C 83.242188 224.164062 87.96875 222.347656 90.160156 220.566406 C 93.484375 217.726562 96.015625 212.726562 97.796875 205.53125 L 111.703125 149.882812 C 113.449219 142.792969 114.304688 138.613281 114.304688 137.347656 C 114.304688 136.183594 113.894531 135.257812 113.070312 134.644531 C 112.25 134.027344 110.640625 133.785156 108.140625 133.820312 L 109.40625 129.027344 C 116.085938 128.992188 124.097656 127.757812 133.414062 125.363281 C 132.59375 127.894531 131.566406 131.59375 130.296875 136.527344 L 122.796875 165.875 C 126.015625 166.527344 128.652344 166.902344 130.847656 166.902344 C 139.167969 166.902344 146.257812 163.992188 152.148438 158.171875 C 158.039062 152.347656 161.015625 145.464844 161.015625 137.519531 C 161.015625 131.355469 158.621094 126.253906 153.929688 122.28125 C 149.203125 118.308594 142.765625 116.320312 134.613281 116.320312 C 124.203125 116.320312 114.03125 118.855469 104.066406 123.855469 C 94.132812 128.890625 86.667969 135.15625 81.703125 142.621094 C 76.738281 150.085938 74.269531 157.929688 74.269531 166.082031 C 74.269531 172.246094 76.804688 177.554688 81.90625 181.972656 C 84.511719 184.164062 86.085938 185.738281 86.703125 186.765625 C 87.320312 187.792969 87.625 188.820312 87.625 189.917969 C 87.625 191.285156 87.113281 192.519531 86.085938 193.546875 C 85.058594 194.574219 83.792969 195.085938 82.320312 195.085938 C 78.6875 195.085938 75.539062 193 72.730469 188.820312 C 69.097656 183.375 67.320312 176.699219 67.320312 168.683594 C 67.320312 158.476562 70.125 148.957031 75.777344 140.085938 C 81.429688 131.253906 89.957031 123.992188 101.429688 118.171875 C 112.902344 112.347656 124.921875 109.503906 137.625 109.503906 C 149.441406 109.503906 159.203125 111.730469 166.769531 116.183594 C 174.40625 120.601562 178.242188 127.210938 178.242188 135.910156 C 178.242188 144.058594 174.714844 151.664062 167.730469 158.683594 C 160.742188 165.703125 151.121094 170.257812 138.824219 172.246094 C 141.875 178.375 143.824219 182.484375 144.679688 184.574219 C 146.050781 188.136719 148.210938 194.199219 151.050781 202.65625 C 157.730469 222.519531 164.648438 236.558594 171.839844 244.710938 C 177.148438 250.671875 182.902344 253.613281 189.066406 253.613281 C 195.433594 253.613281 199.511719 250.773438 201.292969 244.984375 C 202.351562 241.355469 203.347656 239.128906 204.304688 238.273438 C 205.570312 237.109375 207.011719 236.492188 208.585938 236.492188 C 210.160156 236.492188 211.53125 237.039062 212.625 238.171875 C 213.6875 239.300781 214.269531 240.671875 214.269531 242.246094 C 214.269531 246.390625 212.042969 250.292969 207.488281 253.957031 C 203.003906 257.691406 197.179688 259.503906 190.058594 259.503906 C 183.621094 259.503906 177.457031 257.929688 171.597656 254.8125 C 165.742188 251.699219 160.023438 246.59375 154.476562 239.503906 C 148.929688 232.417969 144.132812 223.921875 139.988281 213.957031 C 137.933594 208.957031 134.957031 199.847656 130.984375 186.59375 C 128.585938 178.476562 127.113281 173.648438 126.496094 172.074219 L 124.066406 171.867188 C 123.550781 172.175781 122.730469 172.210938 121.632812 172.3125 Z M 121.632812 172.3125 " fill-opacity="1" fill-rule="nonzero"/></g><g fill="#ffffff" fill-opacity="1"><g transform="translate(153.497461, 187.518238)"><g><path d="M 8.65625 1 C 6.769531 1 5.144531 0.300781 3.78125 -1.09375 C 2.269531 -2.644531 1.472656 -4.726562 1.390625 -7.34375 C 1.328125 -9.875 1.96875 -12.101562 3.3125 -14.03125 C 4.882812 -16.3125 7.070312 -17.453125 9.875 -17.453125 C 12.125 -17.453125 13.828125 -16.425781 14.984375 -14.375 C 15.898438 -12.707031 16.34375 -10.707031 16.3125 -8.375 C 16.28125 -5.882812 15.628906 -3.757812 14.359375 -2 C 12.921875 0 11.019531 1 8.65625 1 Z M 9.65625 -14.03125 C 8.007812 -14.039062 6.726562 -13.257812 5.8125 -11.6875 C 5.082031 -10.414062 4.71875 -8.96875 4.71875 -7.34375 C 4.71875 -5.707031 5.160156 -4.4375 6.046875 -3.53125 C 6.785156 -2.78125 7.65625 -2.40625 8.65625 -2.40625 C 9.820312 -2.40625 10.820312 -2.832031 11.65625 -3.6875 C 12.613281 -4.625 13.117188 -5.894531 13.171875 -7.5 C 13.328125 -11.84375 12.15625 -14.019531 9.65625 -14.03125 Z M 9.65625 -14.03125 "/></g></g></g><g fill="#ffffff" fill-opacity="1"><g transform="translate(171.616293, 187.518238)"><g><path d="M 15.484375 1.109375 C 15.273438 1.109375 14.890625 0.863281 14.328125 0.375 C 13.816406 -0.0820312 13.4375 -0.492188 13.1875 -0.859375 C 12.113281 -0.273438 11.164062 0.160156 10.34375 0.453125 C 9.53125 0.753906 8.847656 0.90625 8.296875 0.90625 C 5.671875 0.90625 3.757812 0.164062 2.5625 -1.3125 C 1.425781 -2.707031 0.859375 -4.835938 0.859375 -7.703125 C 0.859375 -10.421875 1.789062 -12.742188 3.65625 -14.671875 C 5.53125 -16.609375 7.757812 -17.578125 10.34375 -17.578125 C 11.320312 -17.578125 12.414062 -17.320312 13.625 -16.8125 C 15.15625 -16.1875 15.921875 -15.429688 15.921875 -14.546875 C 15.921875 -14.242188 15.804688 -13.972656 15.578125 -13.734375 C 15.472656 -13.304688 15.390625 -12.601562 15.328125 -11.625 C 15.265625 -10.65625 15.226562 -9.40625 15.21875 -7.875 C 15.207031 -6.488281 15.300781 -5.390625 15.5 -4.578125 C 15.613281 -4.085938 15.96875 -3.097656 16.5625 -1.609375 C 16.632812 -1.410156 16.765625 -1.113281 16.953125 -0.71875 L 17.046875 -0.4375 C 17.046875 0.0078125 16.890625 0.378906 16.578125 0.671875 C 16.265625 0.960938 15.898438 1.109375 15.484375 1.109375 Z M 11.984375 -10.59375 C 11.984375 -11.070312 12.015625 -11.59375 12.078125 -12.15625 C 12.140625 -12.726562 12.234375 -13.332031 12.359375 -13.96875 C 11.941406 -14.175781 11.582031 -14.332031 11.28125 -14.4375 C 10.988281 -14.539062 10.75 -14.59375 10.5625 -14.59375 C 8.820312 -14.59375 7.320312 -13.878906 6.0625 -12.453125 C 4.800781 -11.035156 4.171875 -9.40625 4.171875 -7.5625 C 4.171875 -5.71875 4.492188 -4.332031 5.140625 -3.40625 C 5.796875 -2.488281 6.773438 -2.03125 8.078125 -2.03125 C 9.148438 -2.03125 10.066406 -2.226562 10.828125 -2.625 C 11.222656 -2.84375 11.785156 -3.269531 12.515625 -3.90625 C 12.160156 -6.875 11.984375 -9.101562 11.984375 -10.59375 Z M 11.984375 -10.59375 "/></g></g></g><g fill="#ffffff" fill-opacity="1"><g transform="translate(189.247246, 187.518238)"><g><path d="M 17.84375 -14.859375 C 17.707031 -13.210938 17.640625 -11.5625 17.640625 -9.90625 C 17.640625 -6.175781 17.8125 -3.359375 18.15625 -1.453125 C 18.175781 -1.296875 18.1875 -1.164062 18.1875 -1.0625 C 18.1875 -0.613281 18.03125 -0.242188 17.71875 0.046875 C 17.40625 0.335938 17.039062 0.484375 16.625 0.484375 C 15.925781 0.484375 15.414062 -0.0195312 15.09375 -1.03125 C 14.289062 -0.4375 13.453125 0.0078125 12.578125 0.3125 C 11.710938 0.625 10.804688 0.78125 9.859375 0.78125 C 7.535156 0.78125 5.613281 0.00390625 4.09375 -1.546875 C 2.519531 -3.128906 1.734375 -5.160156 1.734375 -7.640625 C 1.734375 -10.640625 2.523438 -13.039062 4.109375 -14.84375 C 5.703125 -16.644531 7.765625 -17.546875 10.296875 -17.546875 C 11.597656 -17.546875 12.601562 -17.347656 13.3125 -16.953125 L 14.890625 -15.78125 C 15.046875 -20.507812 15.234375 -23.691406 15.453125 -25.328125 C 15.597656 -26.328125 16.109375 -26.828125 16.984375 -26.828125 C 18.003906 -26.828125 18.515625 -26.28125 18.515625 -25.1875 C 18.515625 -23.632812 18.289062 -20.191406 17.84375 -14.859375 Z M 10.375 -14.421875 C 8.488281 -14.421875 7.070312 -13.863281 6.125 -12.75 C 5.1875 -11.632812 4.71875 -9.953125 4.71875 -7.703125 C 4.71875 -6.253906 5.226562 -5.007812 6.25 -3.96875 C 7.28125 -2.925781 8.484375 -2.40625 9.859375 -2.40625 C 10.804688 -2.40625 11.601562 -2.578125 12.25 -2.921875 C 12.632812 -3.128906 13.257812 -3.597656 14.125 -4.328125 C 14.289062 -4.472656 14.453125 -4.644531 14.609375 -4.84375 L 14.5625 -7.765625 L 14.578125 -9.71875 L 14.609375 -11.703125 C 14.179688 -12.609375 13.613281 -13.285156 12.90625 -13.734375 C 12.195312 -14.191406 11.351562 -14.421875 10.375 -14.421875 Z M 10.375 -14.421875 "/></g></g></g><g fill="#ffffff" fill-opacity="1"><g transform="translate(209.485831, 187.518238)"><g><path d="M 13.703125 -12.953125 C 13.085938 -12.953125 12.65625 -13.160156 12.40625 -13.578125 C 12.238281 -13.867188 12.09375 -14.476562 11.96875 -15.40625 C 11.125 -15.1875 9.828125 -14.789062 8.078125 -14.21875 C 6.273438 -13.5 5.367188 -12.613281 5.359375 -11.5625 C 5.691406 -11.4375 6.019531 -11.347656 6.34375 -11.296875 C 8.925781 -10.835938 10.84375 -10.203125 12.09375 -9.390625 C 13.925781 -8.210938 14.84375 -6.507812 14.84375 -4.28125 C 14.84375 -2.445312 14.050781 -1.066406 12.46875 -0.140625 C 11.15625 0.628906 9.492188 1.015625 7.484375 1.015625 C 6.015625 1.015625 4.613281 0.765625 3.28125 0.265625 C 1.550781 -0.359375 0.6875 -1.234375 0.6875 -2.359375 C 0.6875 -2.804688 0.863281 -3.195312 1.21875 -3.53125 C 1.570312 -3.875 1.972656 -4.046875 2.421875 -4.046875 C 2.773438 -4.046875 3.222656 -3.773438 3.765625 -3.234375 C 4.035156 -2.972656 4.644531 -2.757812 5.59375 -2.59375 C 6.34375 -2.457031 6.972656 -2.390625 7.484375 -2.390625 C 8.429688 -2.390625 9.265625 -2.5 9.984375 -2.71875 C 11.023438 -3.050781 11.546875 -3.570312 11.546875 -4.28125 C 11.546875 -5.800781 10.476562 -6.832031 8.34375 -7.375 L 6.59375 -7.765625 C 5.101562 -8.085938 4.046875 -8.46875 3.421875 -8.90625 C 2.503906 -9.53125 2.046875 -10.476562 2.046875 -11.75 C 2.046875 -14.09375 3.15625 -15.765625 5.375 -16.765625 C 6.039062 -17.066406 7.113281 -17.425781 8.59375 -17.84375 C 10.082031 -18.269531 11.144531 -18.628906 11.78125 -18.921875 C 12.238281 -19.117188 12.738281 -19.21875 13.28125 -19.21875 C 13.757812 -19.21875 14.148438 -19.0625 14.453125 -18.75 C 14.765625 -18.4375 14.921875 -18.023438 14.921875 -17.515625 C 14.921875 -17.191406 14.988281 -16.710938 15.125 -16.078125 C 15.269531 -15.453125 15.34375 -14.976562 15.34375 -14.65625 C 15.34375 -14.15625 15.1875 -13.742188 14.875 -13.421875 C 14.570312 -13.109375 14.179688 -12.953125 13.703125 -12.953125 Z M 13.703125 -12.953125 "/></g></g></g><g fill="#ffffff" fill-opacity="1"><g transform="translate(226.258789, 187.518238)"><g><path d="M 5.546875 -21.3125 C 5.015625 -21.3125 4.550781 -21.5 4.15625 -21.875 C 3.757812 -22.257812 3.5625 -22.722656 3.5625 -23.265625 C 3.5625 -23.796875 3.757812 -24.253906 4.15625 -24.640625 C 4.550781 -25.023438 5.015625 -25.21875 5.546875 -25.21875 C 6.085938 -25.21875 6.550781 -25.023438 6.9375 -24.640625 C 7.320312 -24.253906 7.515625 -23.796875 7.515625 -23.265625 C 7.515625 -22.722656 7.320312 -22.257812 6.9375 -21.875 C 6.550781 -21.5 6.085938 -21.3125 5.546875 -21.3125 Z M 6.3125 -7.640625 C 6.3125 -6.960938 6.328125 -5.953125 6.359375 -4.609375 C 6.398438 -3.273438 6.421875 -2.269531 6.421875 -1.59375 C 6.421875 -1.101562 6.269531 -0.703125 5.96875 -0.390625 C 5.664062 -0.078125 5.269531 0.078125 4.78125 0.078125 C 4.300781 0.078125 3.90625 -0.078125 3.59375 -0.390625 C 3.28125 -0.703125 3.125 -1.101562 3.125 -1.59375 C 3.125 -2.269531 3.101562 -3.273438 3.0625 -4.609375 C 3.03125 -5.953125 3.015625 -6.960938 3.015625 -7.640625 C 3.015625 -8.691406 3.066406 -10.003906 3.171875 -11.578125 C 3.285156 -13.160156 3.34375 -14.476562 3.34375 -15.53125 C 3.34375 -16.039062 3.5 -16.453125 3.8125 -16.765625 C 4.125 -17.078125 4.519531 -17.234375 5 -17.234375 C 5.476562 -17.234375 5.867188 -17.078125 6.171875 -16.765625 C 6.484375 -16.453125 6.640625 -16.039062 6.640625 -15.53125 C 6.640625 -14.476562 6.582031 -13.160156 6.46875 -11.578125 C 6.363281 -10.003906 6.3125 -8.691406 6.3125 -7.640625 Z M 6.3125 -7.640625 "/></g></g></g><g fill="#ffffff" fill-opacity="1"><g transform="translate(235.915437, 187.518238)"><g><path d="M 17.84375 -14.859375 C 17.707031 -13.210938 17.640625 -11.5625 17.640625 -9.90625 C 17.640625 -6.175781 17.8125 -3.359375 18.15625 -1.453125 C 18.175781 -1.296875 18.1875 -1.164062 18.1875 -1.0625 C 18.1875 -0.613281 18.03125 -0.242188 17.71875 0.046875 C 17.40625 0.335938 17.039062 0.484375 16.625 0.484375 C 15.925781 0.484375 15.414062 -0.0195312 15.09375 -1.03125 C 14.289062 -0.4375 13.453125 0.0078125 12.578125 0.3125 C 11.710938 0.625 10.804688 0.78125 9.859375 0.78125 C 7.535156 0.78125 5.613281 0.00390625 4.09375 -1.546875 C 2.519531 -3.128906 1.734375 -5.160156 1.734375 -7.640625 C 1.734375 -10.640625 2.523438 -13.039062 4.109375 -14.84375 C 5.703125 -16.644531 7.765625 -17.546875 10.296875 -17.546875 C 11.597656 -17.546875 12.601562 -17.347656 13.3125 -16.953125 L 14.890625 -15.78125 C 15.046875 -20.507812 15.234375 -23.691406 15.453125 -25.328125 C 15.597656 -26.328125 16.109375 -26.828125 16.984375 -26.828125 C 18.003906 -26.828125 18.515625 -26.28125 18.515625 -25.1875 C 18.515625 -23.632812 18.289062 -20.191406 17.84375 -14.859375 Z M 10.375 -14.421875 C 8.488281 -14.421875 7.070312 -13.863281 6.125 -12.75 C 5.1875 -11.632812 4.71875 -9.953125 4.71875 -7.703125 C 4.71875 -6.253906 5.226562 -5.007812 6.25 -3.96875 C 7.28125 -2.925781 8.484375 -2.40625 9.859375 -2.40625 C 10.804688 -2.40625 11.601562 -2.578125 12.25 -2.921875 C 12.632812 -3.128906 13.257812 -3.597656 14.125 -4.328125 C 14.289062 -4.472656 14.453125 -4.644531 14.609375 -4.84375 L 14.5625 -7.765625 L 14.578125 -9.71875 L 14.609375 -11.703125 C 14.179688 -12.609375 13.613281 -13.285156 12.90625 -13.734375 C 12.195312 -14.191406 11.351562 -14.421875 10.375 -14.421875 Z M 10.375 -14.421875 "/></g></g></g><g fill="#ffffff" fill-opacity="1"><g transform="translate(256.154021, 187.518238)"><g><path d="M 10.203125 0.78125 C 7.660156 0.78125 5.609375 0.144531 4.046875 -1.125 C 2.328125 -2.53125 1.46875 -4.492188 1.46875 -7.015625 C 1.46875 -9.929688 2.171875 -12.378906 3.578125 -14.359375 C 5.117188 -16.515625 7.175781 -17.59375 9.75 -17.59375 C 11.601562 -17.59375 13.125 -17.273438 14.3125 -16.640625 C 15.757812 -15.867188 16.484375 -14.679688 16.484375 -13.078125 C 16.484375 -11.953125 15.847656 -10.929688 14.578125 -10.015625 C 14.015625 -9.609375 12.820312 -8.976562 11 -8.125 L 4.578125 -5.078125 C 5.203125 -4.148438 5.984375 -3.445312 6.921875 -2.96875 C 7.859375 -2.5 8.953125 -2.265625 10.203125 -2.265625 C 10.972656 -2.265625 11.878906 -2.410156 12.921875 -2.703125 C 14.242188 -3.078125 15.097656 -3.5625 15.484375 -4.15625 C 15.867188 -4.757812 16.28125 -5.0625 16.71875 -5.0625 C 17.101562 -5.0625 17.453125 -4.910156 17.765625 -4.609375 C 18.078125 -4.316406 18.234375 -3.972656 18.234375 -3.578125 C 18.234375 -2.335938 17.226562 -1.269531 15.21875 -0.375 C 13.5 0.394531 11.828125 0.78125 10.203125 0.78125 Z M 9.75 -14.5625 C 8.375 -14.5625 7.234375 -14.03125 6.328125 -12.96875 C 5.421875 -11.90625 4.742188 -10.304688 4.296875 -8.171875 L 9.453125 -10.640625 C 11.484375 -11.628906 12.929688 -12.488281 13.796875 -13.21875 C 12.835938 -14.113281 11.488281 -14.5625 9.75 -14.5625 Z M 9.75 -14.5625 "/></g></g></g><g fill="#ffffff" fill-opacity="1"><g transform="translate(169.189153, 221.551509)"><g><path d="M 10.203125 0.78125 C 7.671875 0.78125 5.617188 0.144531 4.046875 -1.125 C 2.328125 -2.53125 1.46875 -4.492188 1.46875 -7.015625 C 1.46875 -9.941406 2.175781 -12.390625 3.59375 -14.359375 C 5.125 -16.515625 7.175781 -17.59375 9.75 -17.59375 C 11.613281 -17.59375 13.132812 -17.28125 14.3125 -16.65625 C 15.757812 -15.875 16.484375 -14.679688 16.484375 -13.078125 C 16.484375 -11.960938 15.847656 -10.941406 14.578125 -10.015625 C 14.015625 -9.609375 12.828125 -8.976562 11.015625 -8.125 L 4.578125 -5.078125 C 5.203125 -4.148438 5.984375 -3.445312 6.921875 -2.96875 C 7.859375 -2.5 8.953125 -2.265625 10.203125 -2.265625 C 10.972656 -2.265625 11.882812 -2.410156 12.9375 -2.703125 C 14.257812 -3.078125 15.109375 -3.5625 15.484375 -4.15625 C 15.867188 -4.757812 16.28125 -5.0625 16.71875 -5.0625 C 17.113281 -5.0625 17.460938 -4.910156 17.765625 -4.609375 C 18.078125 -4.316406 18.234375 -3.976562 18.234375 -3.59375 C 18.234375 -2.34375 17.226562 -1.269531 15.21875 -0.375 C 13.5 0.394531 11.828125 0.78125 10.203125 0.78125 Z M 9.75 -14.5625 C 8.375 -14.5625 7.234375 -14.03125 6.328125 -12.96875 C 5.421875 -11.90625 4.742188 -10.3125 4.296875 -8.1875 L 9.46875 -10.640625 C 11.5 -11.628906 12.945312 -12.488281 13.8125 -13.21875 C 12.84375 -14.113281 11.488281 -14.5625 9.75 -14.5625 Z M 9.75 -14.5625 "/></g></g></g><g fill="#ffffff" fill-opacity="1"><g transform="translate(188.07719, 221.551509)"><g><path d="M 13.703125 -12.96875 C 13.085938 -12.96875 12.65625 -13.175781 12.40625 -13.59375 C 12.238281 -13.882812 12.09375 -14.488281 11.96875 -15.40625 C 11.125 -15.195312 9.828125 -14.804688 8.078125 -14.234375 C 6.273438 -13.515625 5.367188 -12.625 5.359375 -11.5625 C 5.691406 -11.4375 6.019531 -11.347656 6.34375 -11.296875 C 8.925781 -10.835938 10.847656 -10.203125 12.109375 -9.390625 C 13.929688 -8.210938 14.84375 -6.507812 14.84375 -4.28125 C 14.84375 -2.445312 14.054688 -1.066406 12.484375 -0.140625 C 11.160156 0.628906 9.5 1.015625 7.5 1.015625 C 6.019531 1.015625 4.613281 0.765625 3.28125 0.265625 C 1.550781 -0.359375 0.6875 -1.234375 0.6875 -2.359375 C 0.6875 -2.804688 0.863281 -3.195312 1.21875 -3.53125 C 1.570312 -3.875 1.972656 -4.046875 2.421875 -4.046875 C 2.773438 -4.046875 3.222656 -3.773438 3.765625 -3.234375 C 4.035156 -2.972656 4.644531 -2.757812 5.59375 -2.59375 C 6.34375 -2.457031 6.976562 -2.390625 7.5 -2.390625 C 8.4375 -2.390625 9.265625 -2.503906 9.984375 -2.734375 C 11.023438 -3.054688 11.546875 -3.570312 11.546875 -4.28125 C 11.546875 -5.800781 10.484375 -6.832031 8.359375 -7.375 L 6.59375 -7.765625 C 5.101562 -8.085938 4.046875 -8.46875 3.421875 -8.90625 C 2.503906 -9.53125 2.046875 -10.476562 2.046875 -11.75 C 2.046875 -14.09375 3.15625 -15.765625 5.375 -16.765625 C 6.039062 -17.066406 7.113281 -17.425781 8.59375 -17.84375 C 10.082031 -18.269531 11.144531 -18.628906 11.78125 -18.921875 C 12.25 -19.128906 12.75 -19.234375 13.28125 -19.234375 C 13.769531 -19.234375 14.164062 -19.070312 14.46875 -18.75 C 14.78125 -18.4375 14.9375 -18.03125 14.9375 -17.53125 C 14.9375 -17.207031 15.003906 -16.726562 15.140625 -16.09375 C 15.285156 -15.46875 15.359375 -14.992188 15.359375 -14.671875 C 15.359375 -14.160156 15.203125 -13.75 14.890625 -13.4375 C 14.585938 -13.125 14.191406 -12.96875 13.703125 -12.96875 Z M 13.703125 -12.96875 "/></g></g></g><g fill="#ffffff" fill-opacity="1"><g transform="translate(204.860946, 221.551509)"><g><path d="M 9.953125 1.0625 C 7.648438 1.0625 5.726562 0.363281 4.1875 -1.03125 C 2.570312 -2.488281 1.765625 -4.410156 1.765625 -6.796875 C 1.765625 -9.078125 2.523438 -11.429688 4.046875 -13.859375 C 5.722656 -16.554688 7.617188 -17.90625 9.734375 -17.90625 C 10.828125 -17.90625 12.054688 -17.644531 13.421875 -17.125 C 15.140625 -16.457031 16 -15.648438 16 -14.703125 C 16 -14.273438 15.859375 -13.894531 15.578125 -13.5625 C 15.296875 -13.226562 14.945312 -13.0625 14.53125 -13.0625 C 14.207031 -13.0625 13.921875 -13.160156 13.671875 -13.359375 C 13.429688 -13.554688 13.203125 -13.75 12.984375 -13.9375 C 12.316406 -14.46875 11.234375 -14.734375 9.734375 -14.734375 C 8.585938 -14.734375 7.453125 -13.710938 6.328125 -11.671875 C 5.304688 -9.796875 4.796875 -8.171875 4.796875 -6.796875 C 4.796875 -5.316406 5.300781 -4.148438 6.3125 -3.296875 C 7.257812 -2.503906 8.472656 -2.109375 9.953125 -2.109375 C 10.628906 -2.109375 11.347656 -2.285156 12.109375 -2.640625 L 14.0625 -3.6875 C 14.394531 -3.863281 14.632812 -3.953125 14.78125 -3.953125 C 15.195312 -3.953125 15.554688 -3.785156 15.859375 -3.453125 C 16.160156 -3.128906 16.3125 -2.753906 16.3125 -2.328125 C 16.3125 -1.503906 15.445312 -0.710938 13.71875 0.046875 C 12.207031 0.722656 10.953125 1.0625 9.953125 1.0625 Z M 9.953125 1.0625 "/></g></g></g><g fill="#ffffff" fill-opacity="1"><g transform="translate(222.570585, 221.551509)"><g><path d="M 16.078125 -9.828125 C 16.078125 -9.023438 16.082031 -7.8125 16.09375 -6.1875 C 16.101562 -4.570312 16.109375 -3.363281 16.109375 -2.5625 C 16.109375 -2.3125 16.128906 -1.929688 16.171875 -1.421875 C 16.210938 -0.921875 16.234375 -0.546875 16.234375 -0.296875 C 16.234375 0.179688 16.066406 0.570312 15.734375 0.875 C 15.410156 1.1875 15.015625 1.34375 14.546875 1.34375 C 13.679688 1.34375 13.128906 0.8125 12.890625 -0.25 C 11.492188 0.476562 9.878906 0.84375 8.046875 0.84375 C 6.578125 0.84375 5.359375 0.515625 4.390625 -0.140625 C 3.328125 -0.859375 2.691406 -1.90625 2.484375 -3.28125 C 2.046875 -6.257812 1.828125 -8.910156 1.828125 -11.234375 C 1.828125 -12.765625 2 -14.515625 2.34375 -16.484375 C 2.5 -17.460938 3.03125 -17.953125 3.9375 -17.953125 C 4.425781 -17.953125 4.832031 -17.796875 5.15625 -17.484375 C 5.476562 -17.171875 5.640625 -16.773438 5.640625 -16.296875 C 5.640625 -15.785156 5.554688 -14.960938 5.390625 -13.828125 C 5.234375 -12.691406 5.15625 -11.828125 5.15625 -11.234375 C 5.15625 -9.359375 5.210938 -7.75 5.328125 -6.40625 C 5.453125 -5.070312 5.640625 -4.003906 5.890625 -3.203125 C 6.265625 -2.992188 6.628906 -2.835938 6.984375 -2.734375 C 7.347656 -2.628906 7.703125 -2.578125 8.046875 -2.578125 C 9.554688 -2.578125 11.144531 -2.816406 12.8125 -3.296875 L 12.796875 -6.71875 L 12.765625 -9.984375 C 12.765625 -12.410156 12.867188 -14.515625 13.078125 -16.296875 C 13.203125 -17.328125 13.75 -17.84375 14.71875 -17.84375 C 15.195312 -17.84375 15.597656 -17.6875 15.921875 -17.375 C 16.253906 -17.0625 16.410156 -16.671875 16.390625 -16.203125 Z M 16.078125 -9.828125 "/></g></g></g><g fill="#ffffff" fill-opacity="1"><g transform="translate(240.49907, 221.551509)"><g><path d="M 10.203125 0.78125 C 7.671875 0.78125 5.617188 0.144531 4.046875 -1.125 C 2.328125 -2.53125 1.46875 -4.492188 1.46875 -7.015625 C 1.46875 -9.941406 2.175781 -12.390625 3.59375 -14.359375 C 5.125 -16.515625 7.175781 -17.59375 9.75 -17.59375 C 11.613281 -17.59375 13.132812 -17.28125 14.3125 -16.65625 C 15.757812 -15.875 16.484375 -14.679688 16.484375 -13.078125 C 16.484375 -11.960938 15.847656 -10.941406 14.578125 -10.015625 C 14.015625 -9.609375 12.828125 -8.976562 11.015625 -8.125 L 4.578125 -5.078125 C 5.203125 -4.148438 5.984375 -3.445312 6.921875 -2.96875 C 7.859375 -2.5 8.953125 -2.265625 10.203125 -2.265625 C 10.972656 -2.265625 11.882812 -2.410156 12.9375 -2.703125 C 14.257812 -3.078125 15.109375 -3.5625 15.484375 -4.15625 C 15.867188 -4.757812 16.28125 -5.0625 16.71875 -5.0625 C 17.113281 -5.0625 17.460938 -4.910156 17.765625 -4.609375 C 18.078125 -4.316406 18.234375 -3.976562 18.234375 -3.59375 C 18.234375 -2.34375 17.226562 -1.269531 15.21875 -0.375 C 13.5 0.394531 11.828125 0.78125 10.203125 0.78125 Z M 9.75 -14.5625 C 8.375 -14.5625 7.234375 -14.03125 6.328125 -12.96875 C 5.421875 -11.90625 4.742188 -10.3125 4.296875 -8.1875 L 9.46875 -10.640625 C 11.5 -11.628906 12.945312 -12.488281 13.8125 -13.21875 C 12.84375 -14.113281 11.488281 -14.5625 9.75 -14.5625 Z M 9.75 -14.5625 "/></g></g></g></svg>